<svg width="59" height="48" viewBox="0 0 59 48" fill="none" xmlns="http://www.w3.org/2000/svg">
<path d="M5.3786 29.4804C5.20945 29.2266 5.04031 28.9729 4.78403 28.8422C4.52775 28.7115 4.18946 28.7115 3.88833 28.7961C2.63492 29.1481 2.22123 31.0129 1.19611 33.6962C0.869102 34.5521 1.02183 35.6106 1.14869 36.1757C1.27555 36.7408 1.52927 36.8253 1.95598 36.8689C2.97035 36.9725 4.0075 36.8279 4.77506 36.6152C6.26608 36.202 6.82915 33.5911 7.34171 32.1764C7.47598 31.8058 7.42884 31.2846 7.47113 31.2769C8.10799 33.3989 9.22024 35.9694 9.81609 36.4819C10.1582 36.6562 10.5811 36.6562 11.0168 36.6562" stroke="#FF6060" stroke-width="2" stroke-linecap="round"/>
<path d="M9.4791 25.6362C9.56367 27.6838 9.73538 29.0447 10.2454 30.5849C10.5583 31.5301 10.7605 33.3963 10.8874 35.2351C10.9219 35.7359 11.2679 35.2979 11.4409 34.8687C12.0622 33.3269 12.1239 31.8792 12.8505 30.8079C13.0208 30.5567 13.3182 30.4235 13.6603 30.3363C14.0024 30.2492 14.4253 30.2492 14.77 30.4184C15.4744 30.764 15.799 31.5281 16.0975 32.1239C16.4534 32.8341 16.3987 34.0012 16.1449 35.0263C15.9438 35.8389 14.5227 35.2902 13.841 35.0352C13.4976 34.8648 13.1593 34.6111 12.8582 34.3535C12.557 34.096 12.3033 33.8423 11.7856 33.3246" stroke="#FF6060" stroke-width="2" stroke-linecap="round"/>
<path d="M21.5243 30.2492C21.3551 30.0801 21.0143 29.9929 20.503 30.0352C19.3789 30.1282 18.7923 31.5255 18.2375 32.5519C17.9739 33.0395 17.9363 33.5783 18.1055 34.0896C18.3317 34.7735 19.2997 35.116 20.4466 35.5004C21.2232 35.7607 22.5238 35.6311 23.1773 35.4619C24.5812 35.0986 24.3433 32.6505 24.2165 31.1987C23.8359 30.5926 23.3208 30.3363 22.6826 30.0801C22.2982 29.9929 21.7908 29.9929 21.268 29.9929" stroke="#FF6060" stroke-width="2" stroke-linecap="round"/>
<path d="M26.9062 27.9427C27.675 30.2313 27.9287 34.0063 28.736 34.2626C29.2701 34.4321 30.1353 34.3497 30.6978 34.2228C32.3609 33.8478 32.7135 31.792 33.226 29.9596C33.6954 28.2817 33.2286 26.9201 33.0582 26.4089C32.9723 26.1513 32.8877 25.8976 32.8442 26.4857C32.9698 30.4158 33.3977 31.6972 33.5682 32.5071C33.654 32.894 33.7386 33.2323 34.3383 33.5809" stroke="#FF6060" stroke-width="2" stroke-linecap="round"/>
<path d="M35.6197 22.0482C35.6197 23.5834 35.7888 24.7751 36.3014 26.9509C36.8235 29.1673 36.6448 31.0898 36.9421 32.5519C37.0599 33.1315 37.6673 33.4092 38.2632 33.6219C39.0361 33.8978 39.9713 34.0934 40.8247 33.9243C41.6833 32.73 42.0267 31.4512 41.9421 30.4273C41.8575 29.9955 41.6884 29.7418 41.5141 29.4804" stroke="#FF6060" stroke-width="2" stroke-linecap="round"/>
<path d="M36.3885 27.6864C36.3885 27.5173 36.3885 27.1764 36.5154 26.7497C36.6422 26.5767 36.896 26.4921 37.2381 26.2794C37.5802 26.0667 38.0031 25.7284 38.9513 25.1236" stroke="#FF6060" stroke-width="2" stroke-linecap="round"/>
<path d="M26.1373 41.013C26.2219 41.6921 26.7319 43.0581 27.1189 44.1268C27.222 44.4117 27.1624 44.7649 27.1624 44.474C27.1624 41.866 28.3516 39.6598 29.4651 38.0696C29.6581 37.794 29.9764 37.7685 30.2339 37.7249C30.4915 37.6813 30.7452 37.6813 31.0028 37.8505C32.3734 38.7506 33.0517 40.6644 33.3554 41.778C33.494 42.2862 33.654 42.8044 33.8244 43.0196C34.5847 43.98 34.7637 40.3364 35.6158 39.4356C36.092 38.9322 36.6422 38.5373 37.2381 38.3656C37.5668 38.2709 38.0031 38.5322 38.3055 38.9153C39.513 40.4451 39.2896 42.2841 39.337 46.0399C39.2102 46.7357 38.9564 46.8203 38.6989 46.9061C38.4413 46.992 38.1876 47.0766 37.9262 46.9074" stroke="#FF6060" stroke-width="2" stroke-linecap="round"/>
<path d="M42.5392 41.7818C43.3055 41.8664 44.3281 42.0381 45.2238 41.9112C45.6282 41.854 45.8658 41.5307 45.9965 41.0194C46.1272 40.5081 46.1272 39.7469 46.0003 39.228C45.8734 38.709 45.6197 38.4553 45.193 38.3246C44.7663 38.1939 44.1743 38.1939 43.7425 38.3207C42.3694 38.7241 41.7755 40.0699 41.0464 41.2218C40.7284 41.7243 40.6607 42.2918 40.5749 42.8031C40.4891 43.314 40.8299 43.8295 41.0849 44.2562C41.6725 45.2395 43.303 45.2826 47.1369 45.2429C48.0123 45.2338 48.3414 44.8623 48.558 44.6047C48.7745 44.3472 48.8591 44.0935 48.9027 43.5822C48.9462 43.0709 48.9462 42.3097 48.9462 41.5255" stroke="#FF6060" stroke-width="2" stroke-linecap="round"/>
<path d="M46.1453 23.146C46.5123 23.0938 47.3538 22.6747 48.8289 21.6733C49.6097 21.1433 50.0968 20.5644 50.599 19.9847C51.3208 19.1515 52.362 17.6696 53.3396 16.2436C53.9625 15.3349 54.0008 14.6072 54.1859 12.459C54.3206 10.8953 54.2128 7.9665 54.1867 6.38227C54.1526 4.31553 53.6876 3.69231 53.5017 2.95359C53.0011 2.42524 52.7369 1.95069 52.6056 1.6351C52.5265 1.47613 52.4221 1.31952 52.3146 1.15817" stroke="#FF6060" stroke-width="2" stroke-linecap="round"/>
<path d="M51.6818 1.31636C51.6296 1.68335 51.4192 2.5249 51.208 3.21222C51.049 3.89796 50.9446 4.4785 50.7864 4.89849C50.7327 5.16187 50.7327 5.52728 50.7327 5.90376" stroke="#FF6060" stroke-width="2" stroke-linecap="round"/>
<path d="M52.3145 1C52.9979 1 53.7351 1.1044 54.6573 1.44688C55.5811 1.63274 56.5286 1.84155 57.3472 2.10651C57.5331 2.1595 57.6897 2.21171 57.8511 2.26549" stroke="#FF6060" stroke-width="2" stroke-linecap="round"/>
</svg>
